<?xml version="1.0" encoding="utf-8"?>
<svg xmlns="http://www.w3.org/2000/svg" version="1.1" width="1360" height="410">
<title></title>
<desc></desc>
<line x1="20" y1="55" x2="20" y2="400" style="stroke: black; stroke-opacity: 0.4;stroke-width: 3;" />
<line x1="140" y1="55" x2="140" y2="400" style="stroke: black; stroke-opacity: 0.4;" />
<line x1="260" y1="55" x2="260" y2="400" style="stroke: black; stroke-opacity: 0.4;" />
<line x1="380" y1="55" x2="380" y2="400" style="stroke: black; stroke-opacity: 0.4;" />
<line x1="500" y1="55" x2="500" y2="400" style="stroke: black; stroke-opacity: 0.4;stroke-width: 3;" />
<line x1="620" y1="55" x2="620" y2="400" style="stroke: black; stroke-opacity: 0.4;" />
<line x1="740" y1="55" x2="740" y2="400" style="stroke: black; stroke-opacity: 0.4;stroke-width: 3;" />
<line x1="860" y1="55" x2="860" y2="400" style="stroke: black; stroke-opacity: 0.4;" />
<line x1="980" y1="55" x2="980" y2="400" style="stroke: black; stroke-opacity: 0.4;" />
<line x1="1100" y1="55" x2="1100" y2="400" style="stroke: black; stroke-opacity: 0.4;" />
<line x1="1220" y1="55" x2="1220" y2="400" style="stroke: black; stroke-opacity: 0.4;stroke-width: 3;" />
<line x1="1340" y1="55" x2="1340" y2="400" style="stroke: black; stroke-opacity: 0.4;" />
<line x1="10" y1="75" x2="1350" y2="75" style="stroke: black; stroke-opacity: 0.4;" />
<line x1="10" y1="125" x2="1350" y2="125" style="stroke: black; stroke-opacity: 0.4;" />
<line x1="10" y1="175" x2="1350" y2="175" style="stroke: black; stroke-opacity: 0.4;" />
<line x1="10" y1="225" x2="1350" y2="225" style="stroke: black; stroke-opacity: 0.4;" />
<line x1="10" y1="275" x2="1350" y2="275" style="stroke: black; stroke-opacity: 0.4;" />
<line x1="10" y1="325" x2="1350" y2="325" style="stroke: black; stroke-opacity: 0.4;" />
<line x1="10" y1="375" x2="1350" y2="375" style="stroke: black; stroke-opacity: 0.4;" />
<text x="1310" y="65" style="text-anchor: middle; letter-spacing: 2pt; stroke: black; stroke-opacity: 0.4;">n</text>
<text x="1310" y="115" style="text-anchor: middle; letter-spacing: 2pt; stroke: black; stroke-opacity: 0.4;">n+1</text>
<text x="1310" y="165" style="text-anchor: middle; letter-spacing: 2pt; stroke: black; stroke-opacity: 0.4;">n+2</text>
<text x="1310" y="215" style="text-anchor: middle; letter-spacing: 2pt; stroke: black; stroke-opacity: 0.4;">n+3</text>
<text x="1310" y="265" style="text-anchor: middle; letter-spacing: 2pt; stroke: black; stroke-opacity: 0.4;">n+4</text>
<text x="1310" y="315" style="text-anchor: middle; letter-spacing: 2pt; stroke: black; stroke-opacity: 0.4;">n+5</text>
<text x="1310" y="365" style="text-anchor: middle; letter-spacing: 2pt; stroke: black; stroke-opacity: 0.4;">n+6</text>
<text x="680" y="30" style="text-anchor: middle; font-size: 30; alignment-baseline: middle; letter-spacing: 2pt; stroke: rgb(5%, 32%, 65%);">Semaine du 4/11</text>
<line x1="890" y1="75" x2="1190" y2="75" style="stroke: rgb(5%, 32%, 65%); stroke-width: 10;" />
<circle cx="890" cy="75" r="10" style="fill: rgb(5%, 32%, 65%);" />
<circle cx="1190" cy="75" r="10" style="fill: rgb(5%, 32%, 65%);" />
<text x="1040" y="60" style="text-anchor: middle; font-size: 0.8em; letter-spacing: 2pt; stroke: rgb(5%, 32%, 65%);">TD Elasticité</text>
<text x="1040" y="100" style="text-anchor: middle; font-size: 0.8em; letter-spacing: 2pt; stroke: rgb(5%, 32%, 65%);">P2  (48pl+RP)</text>
<line x1="80" y1="125" x2="260" y2="125" style="stroke: rgb(5%, 32%, 65%); stroke-width: 10;" />
<circle cx="80" cy="125" r="10" style="fill: rgb(5%, 32%, 65%);" />
<circle cx="260" cy="125" r="10" style="fill: rgb(5%, 32%, 65%);" />
<text x="170" y="110" style="text-anchor: middle; font-size: 0.8em; letter-spacing: 2pt; stroke: rgb(5%, 32%, 65%);">TD  Dynamique des Ecoulements Stationnaires</text>
<text x="170" y="150" style="text-anchor: middle; font-size: 0.8em; letter-spacing: 2pt; stroke: rgb(5%, 32%, 65%);">P4  (87pl+RP)</text>
<line x1="350" y1="125" x2="530" y2="125" style="stroke: rgb(5%, 32%, 65%); stroke-width: 10;" />
<circle cx="350" cy="125" r="10" style="fill: rgb(5%, 32%, 65%);" />
<circle cx="530" cy="125" r="10" style="fill: rgb(5%, 32%, 65%);" />
<text x="440" y="110" style="text-anchor: middle; font-size: 0.8em; letter-spacing: 2pt; stroke: rgb(5%, 32%, 65%);">TD  Mathématiques</text>
<text x="440" y="150" style="text-anchor: middle; font-size: 0.8em; letter-spacing: 2pt; stroke: rgb(5%, 32%, 65%);">P3  (46pl+RP)</text>
<line x1="80" y1="175" x2="290" y2="175" style="stroke: rgb(5%, 32%, 65%); stroke-width: 10;" />
<circle cx="80" cy="175" r="10" style="fill: rgb(5%, 32%, 65%);" />
<circle cx="290" cy="175" r="10" style="fill: rgb(5%, 32%, 65%);" />
<text x="185" y="160" style="text-anchor: middle; font-size: 0.8em; letter-spacing: 2pt; stroke: rgb(5%, 32%, 65%);">TD Ondes</text>
<text x="185" y="200" style="text-anchor: middle; font-size: 0.8em; letter-spacing: 2pt; stroke: rgb(5%, 32%, 65%);">P8  (48pl+RP)</text>
<line x1="320" y1="175" x2="500" y2="175" style="stroke: rgb(5%, 32%, 65%); stroke-width: 10;" />
<circle cx="320" cy="175" r="10" style="fill: rgb(5%, 32%, 65%);" />
<circle cx="500" cy="175" r="10" style="fill: rgb(5%, 32%, 65%);" />
<text x="410" y="160" style="text-anchor: middle; font-size: 0.8em; letter-spacing: 2pt; stroke: rgb(5%, 32%, 65%);">TD Acoustique en 3D (Ondes Sphériques)</text>
<text x="410" y="200" style="text-anchor: middle; font-size: 0.8em; letter-spacing: 2pt; stroke: rgb(5%, 32%, 65%);">P2  (48pl+RP)</text>
<line x1="110" y1="225" x2="290" y2="225" style="stroke: rgb(5%, 32%, 65%); stroke-width: 10;" />
<circle cx="110" cy="225" r="10" style="fill: rgb(5%, 32%, 65%);" />
<circle cx="290" cy="225" r="10" style="fill: rgb(5%, 32%, 65%);" />
<text x="200" y="210" style="text-anchor: middle; font-size: 0.8em; letter-spacing: 2pt; stroke: rgb(5%, 32%, 65%);">TD  Anglais</text>
<text x="200" y="250" style="text-anchor: middle; font-size: 0.8em; letter-spacing: 2pt; stroke: rgb(5%, 32%, 65%);">P6  (60pl+RP)</text>
<line x1="740" y1="225" x2="980" y2="225" style="stroke: rgb(5%, 32%, 65%); stroke-width: 10;" />
<circle cx="740" cy="225" r="10" style="fill: rgb(5%, 32%, 65%);" />
<circle cx="980" cy="225" r="10" style="fill: rgb(5%, 32%, 65%);" />
<text x="860" y="210" style="text-anchor: middle; font-size: 0.8em; letter-spacing: 2pt; stroke: rgb(5%, 32%, 65%);">CM/TD Mécanique du Solide en Translation &amp; Rotation</text>
<text x="860" y="250" style="text-anchor: middle; font-size: 0.8em; letter-spacing: 2pt; stroke: rgb(5%, 32%, 65%);">S9  (36pl+RP)</text>
<line x1="1040" y1="225" x2="1280" y2="225" style="stroke: rgb(5%, 32%, 65%); stroke-width: 10;" />
<circle cx="1040" cy="225" r="10" style="fill: rgb(5%, 32%, 65%);" />
<circle cx="1280" cy="225" r="10" style="fill: rgb(5%, 32%, 65%);" />
<text x="1160" y="210" style="text-anchor: middle; font-size: 0.8em; letter-spacing: 2pt; stroke: rgb(5%, 32%, 65%);">UEL</text>
<text x="1160" y="250" style="text-anchor: middle; font-size: 0.8em; letter-spacing: 2pt; stroke: rgb(5%, 32%, 65%);"></text>
<line x1="680" y1="275" x2="1040" y2="275" style="stroke: rgb(5%, 32%, 65%); stroke-width: 10;" />
<circle cx="680" cy="275" r="10" style="fill: rgb(5%, 32%, 65%);" />
<circle cx="1040" cy="275" r="10" style="fill: rgb(5%, 32%, 65%);" />
<text x="860" y="260" style="text-anchor: middle; font-size: 0.8em; letter-spacing: 2pt; stroke: rgb(5%, 32%, 65%);">TD  Optique Physique</text>
<text x="860" y="300" style="text-anchor: middle; font-size: 0.8em; letter-spacing: 2pt; stroke: rgb(5%, 32%, 65%);">P5  (94pl+RP)</text>
</svg>
